<svg xmlns="http://www.w3.org/2000/svg" enable-background="new 0 0 512 512" viewBox="0 0 512 512" id="best-seller"><path fill="#fddc8d" d="M443.956,341.621L401.308,459.54c-7.918,21.852-28.661,36.421-51.939,36.421h-61.757c-8.34,0-16.468-2.639-23.172-7.601l-23.964-17.63c-6.703-4.962-14.832-7.601-23.172-7.601h-32.673V326.895l23.33-0.053c9.607,0,18.21-5.173,23.7-13.09c6.334-9.237,13.882-16.152,22.38-21.166c8.393-4.962,13.407-14.04,13.407-23.805v-44.919c0-13.196,11.823-23.594,24.755-21.324c1.9,0.37,16.152,3.009,28.187,26.234c6.598,12.721,9.448,27.078,9.448,41.435v6.281c0,6.123-1.9,12.034-5.384,17.049l-1.953,2.745h89.679C435.617,296.28,451.98,319.558,443.956,341.621z"></path><path d="M443.956,341.621L401.308,459.54c-7.918,21.852-28.661,36.421-51.939,36.421h-27.553c23.277,0,44.021-14.568,51.939-36.421l42.649-117.918c8.023-22.063-8.34-45.341-31.776-45.341h27.553C435.617,296.28,451.98,319.558,443.956,341.621z" opacity=".15"></path><path fill="#7bdd9d" d="M184.648,329.397v131.188c0,15.5-12.565,28.065-28.065,28.065H7.912V301.332h148.671C172.083,301.332,184.648,313.897,184.648,329.397z"></path><rect width="26.708" height="187.276" x="7.912" y="301.348" fill="#fff" opacity=".5"></rect><path d="M184.631,329.376v131.22c0,15.466-12.563,28.028-28.028,28.028h-24.861c15.518,0,28.081-12.563,28.081-28.028v-131.22c0-15.466-12.563-28.028-28.081-28.028h24.861C172.069,301.348,184.631,313.91,184.631,329.376z" opacity=".15"></path><path fill="#efefef" d="M297.139 22.85l11.278 34.71c1.319 4.06 5.103 6.81 9.373 6.81h36.496c9.547 0 13.516 12.216 5.793 17.828l-29.526 21.452c-3.454 2.509-4.899 6.958-3.58 11.018l11.278 34.71c2.95 9.079-7.442 16.63-15.165 11.018l-29.526-21.452c-3.454-2.51-8.131-2.51-11.585 0l-29.526 21.452c-7.723 5.611-18.115-1.939-15.165-11.018l11.278-34.71c1.319-4.06-.126-8.509-3.58-11.018l-29.526-21.452c-7.723-5.611-3.754-17.828 5.793-17.828h36.496c4.269 0 8.053-2.749 9.373-6.81l11.278-34.71C281.344 13.771 294.189 13.771 297.139 22.85zM132.267 126.196l8.376 25.78c.88 2.707 3.402 4.54 6.248 4.54h27.106c6.364 0 9.011 8.144 3.862 11.885l-21.93 15.933c-2.303 1.673-3.266 4.638-2.387 7.345l8.376 25.78c1.967 6.053-4.961 11.086-10.11 7.345l-21.93-15.933c-2.303-1.673-5.421-1.673-7.723 0l-21.93 15.933c-5.149 3.741-12.077-1.292-10.11-7.345l8.376-25.78c.88-2.707-.084-5.672-2.387-7.345L74.177 168.4c-5.149-3.741-2.503-11.885 3.862-11.885h27.106c2.846 0 5.369-1.833 6.248-4.54l8.376-25.78C121.737 120.143 130.3 120.143 132.267 126.196zM455.763 126.196l8.376 25.78c.88 2.707 3.402 4.54 6.248 4.54h27.106c6.364 0 9.011 8.144 3.862 11.885l-21.93 15.933c-2.303 1.673-3.266 4.638-2.387 7.345l8.376 25.78c1.967 6.053-4.961 11.086-10.11 7.345l-21.93-15.933c-2.303-1.673-5.421-1.673-7.723 0l-21.93 15.933c-5.149 3.741-12.077-1.292-10.11-7.345l8.376-25.78c.88-2.707-.084-5.672-2.387-7.345l-21.93-15.933c-5.149-3.741-2.503-11.885 3.862-11.885h27.106c2.846 0 5.369-1.833 6.248-4.54l8.376-25.78C445.233 120.143 453.796 120.143 455.763 126.196z"></path><path d="M317.804 64.35h-15.466c-4.275 0-8.023-2.745-9.343-6.809L281.7 22.862c-.37-1.214-.95-2.217-1.636-3.114 4.487-5.806 14.515-4.75 17.102 3.114l11.243 34.679C309.728 61.605 313.529 64.35 317.804 64.35zM326.988 114.652l11.243 34.732c2.956 9.079-7.442 16.627-15.149 11.032l-2.164-1.583c2.111-2.375 3.114-5.806 1.9-9.448l-11.296-34.732c-1.32-4.064.158-8.498 3.589-10.979l29.506-21.483c7.759-5.595 3.747-17.841-5.754-17.841h15.413c9.554 0 13.513 12.246 5.806 17.841l-29.506 21.483C327.094 106.154 325.669 110.588 326.988 114.652zM146.891 156.51h-15.466c-2.798 0-5.331-1.848-6.228-4.54l-6.915-21.219 1.478-4.54c1.953-6.07 10.557-6.07 12.51 0l8.393 25.758C141.507 154.662 144.041 156.51 146.891 156.51zM155.917 184.326c-2.27 1.689-3.273 4.645-2.375 7.337l8.392 25.811c1.953 6.017-4.962 11.084-10.134 7.337l-5.226-3.801c.317-1.109.317-2.322-.106-3.536l-8.392-25.811c-.845-2.692.105-5.648 2.428-7.337l21.905-15.94c5.173-3.748 2.534-11.876-3.853-11.876h15.466c6.334 0 8.973 8.129 3.853 11.876L155.917 184.326zM470.401 156.51h-15.466c-2.85 0-5.384-1.848-6.228-4.54l-6.915-21.219 1.478-4.54c1.953-6.07 10.504-6.07 12.51 0l8.34 25.758C465.017 154.662 467.551 156.51 470.401 156.51zM479.427 184.326c-2.322 1.689-3.273 4.645-2.375 7.337l8.34 25.811c2.006 6.017-4.962 11.084-10.082 7.337l-5.226-3.801c.317-1.109.317-2.322-.105-3.536l-8.393-25.811c-.844-2.692.106-5.648 2.375-7.337l21.958-15.94c5.12-3.748 2.481-11.876-3.853-11.876h15.413c6.387 0 9.026 8.129 3.853 11.876L479.427 184.326z" opacity=".15"></path><path d="M412.18 291.001h-80.292c2.086-4.527 3.23-9.432 3.23-14.5-.43-4.752 2.734-25.583-10.036-50.18-12.369-23.817-27.572-28.186-31.938-28.959-16.097-2.837-30.956 9.929-30.956 26.485v44.938c0 7.951-4.144 15.332-10.814 19.265-9.448 5.575-17.544 13.206-24.064 22.683-4.747 6.899-11.807 10.856-19.374 10.856l-18.968.002c-3.528-14.625-16.69-25.538-32.385-25.538H7.912c-2.915 0-5.278 2.363-5.278 5.278v187.32c0 2.915 2.363 5.278 5.278 5.278h148.67c15.688 0 28.845-10.903 32.38-25.521h28.342c7.302 0 14.229 2.271 20.044 6.575l23.954 17.619c7.634 5.649 16.732 8.637 26.312 8.637h61.755c25.387 0 48.255-16.034 56.902-39.902l42.647-117.91C458.196 317.902 439.336 291.001 412.18 291.001zM156.582 483.372H13.19V306.61h143.392c12.564 0 22.789 10.222 22.789 22.786v131.188C179.371 473.148 169.146 483.372 156.582 483.372zM438.992 339.826l-42.65 117.915c-7.137 19.704-26.015 32.941-46.974 32.941h-61.755c-7.302 0-14.229-2.271-20.044-6.575l-23.954-17.619c-7.634-5.649-16.732-8.637-26.312-8.637h-27.376V332.148l18.008-.002c10.93 0 21.425-5.768 28.07-15.428 5.724-8.317 12.505-14.719 20.732-19.575 9.874-5.822 16.008-16.688 16.008-28.358v-44.938c0-9.844 8.777-17.824 18.562-16.088 2.253.397 14.005 3.397 24.405 23.428 10.906 20.999 8.532 41.678 8.851 45.314 0 12.306-7.709 16.878-22.173 39.108-4.165 5.9-6.366 12.835-6.366 20.057v24.572c0 13.358-10.866 24.224-24.224 24.224-2.915 0-5.278 2.363-5.278 5.278s2.363 5.278 5.278 5.278c19.178 0 34.781-15.603 34.781-34.781v-24.572c0-5.028 1.534-9.861 4.433-13.969l14.211-20.139h86.956C432 301.558 445.772 321.191 438.992 339.826zM212.353 86.468l29.526 21.451c1.608 1.17 2.278 3.224 1.662 5.116l-11.278 34.711c-2.064 6.351.093 12.992 5.495 16.918 5.407 3.928 12.387 3.925 17.794.003l29.526-21.451c1.608-1.175 3.771-1.17 5.379 0l29.526 21.451c5.403 3.925 12.386 3.925 17.794-.003 5.402-3.925 7.559-10.567 5.495-16.918l-11.278-34.709c-.613-1.892.054-3.948 1.665-5.119l29.526-21.451c5.402-3.925 7.559-10.567 5.495-16.92-2.064-6.351-7.714-10.456-14.392-10.456h-36.495c-1.99 0-3.74-1.271-4.353-3.162l-11.278-34.711c-2.064-6.351-7.711-10.454-14.389-10.456-.003 0-.003 0-.003 0-6.678 0-12.33 4.106-14.394 10.456l-11.278 34.711c-.613 1.892-2.363 3.162-4.351 3.162h-36.497c-6.68 0-12.327 4.106-14.392 10.456C204.791 75.901 206.951 82.543 212.353 86.468zM216.894 72.811c.242-.742 1.268-3.162 4.353-3.162h36.497c6.575 0 12.358-4.201 14.392-10.456l11.278-34.711c.954-2.933 3.572-3.162 4.353-3.162.781.003 3.4.229 4.351 3.162l11.278 34.711c2.034 6.255 7.817 10.456 14.394 10.456h36.495c3.085 0 4.111 2.42 4.353 3.162.24.742.832 3.304-1.662 5.116l-29.526 21.451c-5.32 3.863-7.528 10.662-5.5 16.92l11.278 34.711c.954 2.933-1.031 4.657-1.66 5.116-.637.459-2.887 1.817-5.381 0l-29.526-21.451c-5.319-3.866-12.471-3.866-17.791 0l-29.526 21.451c-2.495 1.817-4.75.461-5.381 0-.629-.459-2.613-2.183-1.66-5.116l11.278-34.711c2.031-6.253-.178-13.052-5.497-16.92l-29.526-21.451C216.061 76.112 216.654 73.553 216.894 72.811zM71.074 172.671l21.93 15.933c.454.33.642.91.469 1.443l-8.376 25.778c-1.616 4.977.075 10.175 4.307 13.25 4.203 3.051 9.659 3.094 13.925-.003l21.928-15.933c.454-.332 1.062-.332 1.521 0l21.928 15.933c4.229 3.07 9.698 3.075 13.928.003 4.232-3.075 5.923-8.276 4.307-13.25l-8.376-25.776c-.173-.536.015-1.116.469-1.446l21.93-15.933c4.229-3.075 5.92-8.276 4.304-13.25-1.616-4.972-6.039-8.186-11.268-8.186h-27.108c-.562 0-1.054-.358-1.227-.892l-8.376-25.781c-1.616-4.972-6.039-8.186-11.268-8.186-5.232 0-9.655 3.214-11.271 8.186l-8.376 25.781c-.173.534-.665.892-1.227.892H78.038c-5.229 0-9.652 3.214-11.268 8.186C65.154 164.396 66.845 169.597 71.074 172.671zM76.811 162.684c.289-.892.995-.892 1.227-.892h27.108c5.149 0 9.678-3.289 11.268-8.186l8.376-25.781c.379-1.186 2.072-1.191 2.456 0l8.376 25.781c1.59 4.897 6.119 8.186 11.268 8.186H174c.232 0 .938 0 1.227.892.193.593.036 1.08-.469 1.446l-21.93 15.933c-4.162 3.026-5.892 8.348-4.304 13.247l8.376 25.778c.193.593.036 1.077-.469 1.446-.763.546-1.332.134-1.518-.003l-21.93-15.933c-4.16-3.022-9.758-3.026-13.928 0l-21.93 15.936c-.193.131-.755.546-1.515 0-.505-.366-.662-.853-.469-1.446l8.376-25.781c1.588-4.897-.142-10.219-4.304-13.245L77.28 164.13C76.775 163.764 76.618 163.277 76.811 162.684zM508.762 159.421c-1.616-4.972-6.039-8.186-11.268-8.186h-27.106c-.562 0-1.057-.361-1.229-.892l-8.376-25.781c-1.616-4.972-6.039-8.186-11.268-8.186-5.229 0-9.652 3.214-11.268 8.186l-8.379 25.781c-.173.534-.665.892-1.227.892h-27.106c-5.229 0-9.652 3.214-11.268 8.186-1.616 4.972.072 10.173 4.302 13.25l21.933 15.933c.454.33.639.91.467 1.443l-8.376 25.778c-1.616 4.974.075 10.175 4.307 13.25 4.214 3.063 9.679 3.082 13.928-.003l21.93-15.933c.454-.33 1.062-.33 1.515 0l21.93 15.933c4.227 3.07 9.696 3.075 13.928.003 4.232-3.075 5.923-8.276 4.307-13.25l-8.379-25.781c-.173-.531.015-1.111.472-1.441l21.928-15.933C508.688 169.597 510.378 164.396 508.762 159.421zM498.252 164.13l-21.925 15.933c-4.17 3.026-5.9 8.351-4.307 13.247l8.376 25.778c.193.593.036 1.077-.469 1.446-.76.546-1.335.134-1.518-.003l-21.93-15.933c-4.165-3.026-9.763-3.026-13.928 0l-21.93 15.933c-.186.137-.755.549-1.518.003-.505-.369-.662-.853-.469-1.446l8.376-25.781c1.59-4.899-.142-10.222-4.304-13.245l-21.93-15.93c-.503-.369-.662-.856-.469-1.448.291-.892.997-.892 1.229-.892h27.106c5.149 0 9.678-3.289 11.268-8.186l8.379-25.781c.072-.222.289-.892 1.227-.892s1.155.67 1.227.892l8.379 25.784c1.593 4.894 6.121 8.183 11.268 8.183h27.106c.232 0 .938 0 1.227.892C498.914 163.277 498.757 163.764 498.252 164.13z"></path></svg>