<svg xmlns="http://www.w3.org/2000/svg" enable-background="new 0 0 512 512" viewBox="0 0 512 512" id="legal-documents"><path fill="#47aacb" d="M299.594,57.234l-202.63-0.509C85.13,56.696,75.515,66.267,75.488,78.1l-0.895,399.203
			c-0.027,11.831,9.542,21.443,21.373,21.471l275.081,0.671c11.833,0.028,21.448-9.542,21.474-21.375l0.734-327.227L299.594,57.234z
			"></path><path fill="#90cddf" d="M393.27,150.857l-0.785,327.229c0,11.779-9.581,21.36-21.438,21.36l-275.086-0.707
			c-11.858,0-21.36-9.58-21.36-21.438v-16.334l82.769,0.236c108.919,0.313,197.499-87.874,197.735-196.871l0.393-151.246
			L393.27,150.857z"></path><path fill="#fff" d="M343.75,13.078l-202.63-0.509c-11.833-0.029-21.449,9.542-21.475,21.375l-0.895,399.203
			c-0.027,11.831,9.542,21.443,21.373,21.471l275.081,0.671c11.833,0.028,21.448-9.542,21.474-21.375l0.734-327.227L343.75,13.078z"></path><path fill="#dbdbdb" d="M364.677,106.585l72.447,0l-93.871-93.399l0,71.975
			C343.254,96.994,352.845,106.585,364.677,106.585z"></path><path fill="#47aacb" d="M236.83 320.027c0 17.826-14.528 32.275-32.354 32.275-17.826 0-32.276-14.449-32.276-32.275H236.83zM319.33 320.027c0 17.826 14.528 32.275 32.354 32.275 17.826 0 32.276-14.449 32.276-32.275H319.33z"></path><path fill="#3a3d3f" d="M442.96,101.136L349.301,7.522c-1.465-1.472-3.459-2.293-5.529-2.301L141.139,4.716
			c-14.773-0.493-29.307,12.093-29.349,29.21l-0.034,14.983l-14.775-0.036h-0.077c-16.116,0-29.236,13.024-29.268,29.21
			L66.74,477.29c-0.04,16.141,13.003,29.301,29.207,29.333l275.08,0.675h0.084c16.089,0,29.216-12.992,29.264-29.21l0.034-14.983
			l14.774,0.036c0.031,0,0.054,0,0.077,0c16.104,0,29.233-13.083,29.272-29.21l0.729-327.228
			C445.268,104.617,444.44,102.608,442.96,101.136z M418.097,98.735h-53.421c-7.477,0-13.566-6.089-13.566-13.574V32.078
			L418.097,98.735z M384.669,478.05c-0.016,7.49-6.075,13.543-13.566,13.543h-0.031l-275.091-0.675
			c-7.472-0.016-13.551-6.079-13.535-13.597l0.897-399.207c0.016-7.476,6.071-13.535,13.562-13.535h0.038l14.778,0.036
			l-0.825,368.519c-0.038,16.135,13.064,29.302,29.207,29.341l244.599,0.593L384.669,478.05z M415.26,447.436
			c-0.008,0-0.023,0-0.038,0l-275.08-0.667c-7.481-0.023-13.555-6.12-13.539-13.604l0.893-399.207
			c0.016-7.461,6.061-13.535,13.566-13.535c0.015,0,0.027,0,0.038,0l194.304,0.485v64.255c0,16.143,13.129,29.279,29.272,29.279
			h64.86l-0.711,319.452C428.803,441.37,422.722,447.436,415.26,447.436z"></path><path fill="#3a3d3f" d="M391.027 316.575l-32.324-66.051c-1.088-2.219-3.793-4.402-7.055-4.402h-65.714v-20.736c0-4.341-3.512-7.853-7.853-7.853s-7.853 3.512-7.853 7.853v20.736H204.51c-3.269 0-5.973 2.194-7.055 4.402l-32.32 66.051c-.414.846-.89 2.776-.691 4.392.514 21.682 18.23 39.19 40.032 39.19 21.898 0 39.691-17.586 40.127-39.335.101-1.012-.195-3.189-.717-4.247l-26.789-54.748h53.131v133.368H246.93c-4.337 0-7.853 3.512-7.853 7.853s3.516 7.853 7.853 7.853h62.301c4.341 0 7.853-3.512 7.853-7.853s-3.512-7.853-7.853-7.853h-23.298V261.828h53.128l-26.786 54.748c-.42.861-.876 2.714-.716 4.254.441 21.747 18.231 39.328 40.126 39.328 21.781 0 39.476-17.477 40.022-39.129C391.911 319.475 391.509 317.56 391.027 316.575zM204.475 344.451c-10.721 0-19.851-6.948-23.125-16.572h46.327C224.391 337.503 215.231 344.451 204.475 344.451zM184.774 312.173l19.736-40.33 19.736 40.33H184.774zM351.647 271.843l19.74 40.33h-39.471L351.647 271.843zM351.686 344.451c-10.759 0-19.916-6.948-23.206-16.572h46.327C371.532 337.503 362.407 344.451 351.686 344.451zM178.183 72.661h118.771c4.341 0 7.853-3.512 7.853-7.853 0-4.341-3.512-7.853-7.853-7.853H178.183c-4.337 0-7.853 3.512-7.853 7.853C170.33 69.149 173.846 72.661 178.183 72.661zM178.183 123.16h118.771c4.341 0 7.853-3.512 7.853-7.853s-3.512-7.853-7.853-7.853H178.183c-4.337 0-7.853 3.512-7.853 7.853S173.846 123.16 178.183 123.16zM178.183 173.652h118.771c4.341 0 7.853-3.512 7.853-7.853s-3.512-7.853-7.853-7.853H178.183c-4.337 0-7.853 3.512-7.853 7.853S173.846 173.652 178.183 173.652z"></path></svg>