<svg xmlns="http://www.w3.org/2000/svg" viewBox="0 0 64 64" id="price-tag"><path fill="#faa307" d="M22.678 59.824 4.219 41.364a4.016 4.016 0 0 1 0-5.679L23.407 16.5a4.019 4.019 0 0 1 2.811-1.177l18.694-.135a4.016 4.016 0 0 1 4.045 4.065l-.227 18.583a4.008 4.008 0 0 1-1.176 2.791l-19.2 19.2a4.017 4.017 0 0 1-5.676-.003Z"></path><path fill="#ffd100" d="M59.863 27.168 46.932 13.919a4 4 0 0 0-5.711-.014l-13.07 13.26A4 4 0 0 0 27 29.973V57a4 4 0 0 0 4 4h26a4 4 0 0 0 4-4V29.962a4 4 0 0 0-1.137-2.794ZM44 33a5 5 0 1 1 5-5 5 5 0 0 1-5 5Z"></path><path fill="#212529" d="M44 3a13.255 13.255 0 0 0-13.21 12.29l3.01-.03a10.249 10.249 0 0 1 20.45.99 10.266 10.266 0 0 1-5.36 9c-.18.1-.36.19-.54.28a10.239 10.239 0 0 1-8.7 0A5.026 5.026 0 0 0 39 28a4.578 4.578 0 0 0 .03.53 13.025 13.025 0 0 0 4.97.97 13.181 13.181 0 0 0 4.84-.91c.04-.02.09-.03.13-.05A13.254 13.254 0 0 0 44 3Z"></path><circle cx="38" cy="40" r="3" fill="#fff"></circle><circle cx="50" cy="52" r="3" fill="#fff"></circle><path fill="#fff" d="M36.5 53.5a2.109 2.109 0 0 1 .009-2.991l12.077-11.923a2 2 0 0 1 2.828 2.828L39.491 53.491a2.109 2.109 0 0 1-2.991.009Z"></path></svg>