<svg xmlns="http://www.w3.org/2000/svg" width="24" height="24" id="shield"><g transform="translate(0 -1028.362)"><circle cx="12" cy="1040.362" r="12" fill="#50b748" fill-rule="evenodd"></circle><path style="line-height:normal;text-indent:0;text-align:start;text-decoration-line:none;text-transform:none;block-progression:tb" fill="#10a711" d="M16.098 23.264a12 12 0 0 0 .576-.211 12 12 0 0 0 1.08-.522 12 12 0 0 0 1.021-.627 12 12 0 0 0 .955-.726 12 12 0 0 0 .877-.817 12 12 0 0 0 .793-.902 12 12 0 0 0 .698-.975 12 12 0 0 0 .597-1.04 12 12 0 0 0 .489-1.096 12 12 0 0 0 .378-1.137 12 12 0 0 0 .264-1.172l-6.96-6.96c-.88.404-1.763.627-2.59.628-.208 0-.41-.013-.61-.041A3.607 3.607 0 0 1 12.016 7c-1.322.971-3.095.89-4.854.076-.274 2.672-.126 4.851.62 6.71.12.3.264.594.417.884.04.073.078.148.12.22.125.224.264.444.41.663.05.075.095.152.148.226.184.261.383.518.596.774.065.078.135.155.203.232.184.211.379.422.584.631.035.036.065.073.101.11l5.737 5.738z" color="#000" font-family="sans-serif" font-weight="400" transform="translate(0 1028.362)"></path><path style="line-height:normal;text-indent:0;text-align:start;text-decoration-line:none;text-transform:none;block-progression:tb" fill="#fff" d="M8.016 2.074c1.32.972 3.091.889 4.85.078.233 2.658.083 4.84-.651 6.7-.75 1.9-2.126 3.549-4.2 5.222-2.076-1.673-3.473-3.32-4.234-5.215-.745-1.857-.893-4.037-.619-6.709 1.76.813 3.532.896 4.854-.076zM10.232 6a.506.506 0 0 0-.343.152L7.25 8.791 6.111 7.652c-.367-.382-1.09.34-.707.707l1.492 1.495a.52.52 0 0 0 .71 0l2.99-2.997c.285-.279.035-.868-.364-.857Z" color="#000" font-family="sans-serif" font-weight="400" overflow="visible" transform="translate(4 1033.288)"></path></g></svg>